<svg width="201" height="32" viewBox="0 0 201 32" fill="none" xmlns="http://www.w3.org/2000/svg">
  <path d="M45.5176 10.5056C46.1308 10.1716 46.8488 10.0034 47.6714 10.0034C48.6336 10.0034 49.5048 10.2476 50.285 10.735C51.0652 11.2236 51.6822 11.9203 52.1359 12.8264C52.5883 13.7325 52.8151 14.7857 52.8151 15.9847C52.8151 17.1837 52.5883 18.2394 52.1359 19.153C51.6822 20.0665 51.0652 20.7707 50.285 21.2656C49.5035 21.7604 48.6323 22.0084 47.6714 22.0084C46.8625 22.0084 46.1483 21.8414 45.5276 21.5061C44.9069 21.1721 44.4221 20.7396 44.0743 20.2099V26.9228H40.4985V10.1704H44.0743V11.8231C44.4221 11.2796 44.9032 10.8397 45.5176 10.5056ZM48.4354 13.8833C47.9406 13.3748 47.3299 13.1205 46.6057 13.1205C45.8816 13.1205 45.292 13.3785 44.7972 13.8945C44.3024 14.4105 44.0544 15.1147 44.0544 16.0071C44.0544 16.8995 44.3012 17.6037 44.7972 18.1197C45.292 18.6357 45.8953 18.8937 46.6057 18.8937C47.3161 18.8937 47.9231 18.632 48.4254 18.1097C48.9277 17.5875 49.1782 16.8796 49.1782 15.9872C49.1782 15.0948 48.9302 14.3943 48.4354 13.8858V13.8833Z" fill="#374151"/>
  <path d="M54.6672 12.8264C55.1197 11.9203 55.7366 11.2236 56.5181 10.735C57.2983 10.2476 58.1708 10.0034 59.1317 10.0034C59.9543 10.0034 60.676 10.1704 61.2967 10.5056C61.9174 10.8397 62.3947 11.2796 62.7288 11.8231V10.1704H66.3046V21.8401H62.7288V20.1874C62.3798 20.7309 61.8949 21.1708 61.2755 21.5049C60.6548 21.8401 59.9332 22.0071 59.1105 22.0071C58.1621 22.0071 57.2983 21.7604 56.5169 21.2643C55.7354 20.7695 55.1184 20.0653 54.666 19.1517C54.2123 18.2381 53.9867 17.1824 53.9867 15.9834C53.9867 14.7844 54.2136 13.7325 54.666 12.8251L54.6672 12.8264ZM61.9872 13.8933C61.4924 13.3773 60.8891 13.1193 60.1787 13.1193C59.4683 13.1193 58.865 13.3735 58.3702 13.8821C57.8754 14.3906 57.6274 15.0923 57.6274 15.9834C57.6274 16.8746 57.8741 17.5838 58.3702 18.106C58.865 18.6295 59.4683 18.89 60.1787 18.89C60.8891 18.89 61.4924 18.632 61.9872 18.116C62.482 17.6 62.73 16.8958 62.73 16.0034C62.73 15.111 62.482 14.4068 61.9872 13.8908V13.8933Z" fill="#374151"/>
  <path d="M74.0433 10.5991C74.6702 10.2302 75.3682 10.0445 76.1347 10.0445V13.8297H75.1513C74.2589 13.8297 73.5896 14.0217 73.1434 14.4043C72.6972 14.7882 72.4741 15.46 72.4741 16.4222V21.8389H68.8983V10.1704H72.4741V12.1147C72.8929 11.4741 73.4151 10.9681 74.0421 10.5979L74.0433 10.5991Z" fill="#374151"/>
  <path d="M77.8173 12.8264C78.2697 11.9203 78.8867 11.2236 79.6682 10.735C80.4484 10.2476 81.3196 10.0034 82.2818 10.0034C83.1044 10.0034 83.8261 10.1704 84.4468 10.5056C85.0674 10.8397 85.5448 11.2796 85.8801 11.8231V10.1704H89.4559V21.8401H85.8801V20.1874C85.5311 20.7309 85.0463 21.1708 84.4268 21.5049C83.8061 21.8401 83.0845 22.0071 82.2619 22.0071C81.3134 22.0071 80.4496 21.7604 79.6682 21.2643C78.8867 20.7695 78.2697 20.0653 77.8173 19.1517C77.3636 18.2381 77.138 17.1824 77.138 15.9834C77.138 14.7844 77.3649 13.7325 77.8173 12.8251V12.8264ZM85.1372 13.8933C84.6424 13.3773 84.0392 13.1193 83.3288 13.1193C82.6183 13.1193 82.0138 13.3735 81.5203 13.8821C81.0255 14.3906 80.7774 15.0923 80.7774 15.9834C80.7774 16.8746 81.0255 17.5838 81.5203 18.106C82.0151 18.6295 82.6183 18.89 83.3288 18.89C84.0392 18.89 84.6424 18.632 85.1372 18.116C85.6321 17.6 85.8801 16.8958 85.8801 16.0034C85.8801 15.111 85.6321 14.4068 85.1372 13.8908V13.8933Z" fill="#374151"/>
  <path d="M102.432 11.3731C103.247 12.258 103.656 13.4745 103.656 15.0225V21.8401H100.101V15.5036C100.101 14.7234 99.8992 14.1164 99.4942 13.6839C99.0891 13.2514 98.5457 13.0358 97.8627 13.0358C97.1797 13.0358 96.6363 13.2527 96.2312 13.6839C95.8261 14.1164 95.6242 14.7221 95.6242 15.5036V21.8401H92.0484V10.1704H95.6242V11.7184C95.9869 11.2024 96.4742 10.7948 97.0887 10.4944C97.7019 10.1953 98.3924 10.0445 99.1589 10.0445C100.525 10.0445 101.617 10.487 102.432 11.3731Z" fill="#374151"/>
  <path d="M106.112 12.8264C106.565 11.9203 107.182 11.2236 107.963 10.735C108.743 10.2476 109.616 10.0034 110.577 10.0034C111.399 10.0034 112.121 10.1704 112.742 10.5056C113.363 10.8397 113.84 11.2796 114.174 11.8231V10.1704H117.75V21.8401H114.174V20.1874C113.825 20.7309 113.34 21.1708 112.721 21.5049C112.1 21.8401 111.378 22.0071 110.556 22.0071C109.607 22.0071 108.743 21.7604 107.962 21.2643C107.181 20.7695 106.564 20.0653 106.111 19.1517C105.657 18.2381 105.432 17.1824 105.432 15.9834C105.432 14.7844 105.659 13.7325 106.111 12.8251L106.112 12.8264ZM113.432 13.8933C112.938 13.3773 112.334 13.1193 111.624 13.1193C110.913 13.1193 110.31 13.3735 109.815 13.8821C109.321 14.3906 109.073 15.0923 109.073 15.9834C109.073 16.8746 109.319 17.5838 109.815 18.106C110.31 18.6295 110.913 18.89 111.624 18.89C112.334 18.89 112.938 18.632 113.432 18.116C113.927 17.6 114.175 16.8958 114.175 16.0034C114.175 15.111 113.927 14.4068 113.432 13.8908V13.8933Z" fill="#374151"/>
  <path d="M125.592 18.4936L128.122 10.1704H131.928L127.788 21.8401H123.376L119.235 10.1704H123.063L125.593 18.4936H125.592Z" fill="#374151"/>
  <path d="M133.403 12.8264C133.855 11.9203 134.472 11.2236 135.254 10.735C136.034 10.2476 136.906 10.0034 137.867 10.0034C138.69 10.0034 139.412 10.1704 140.032 10.5056C140.653 10.8397 141.13 11.2796 141.464 11.8231V10.1704H145.04V21.8401H141.464V20.1874C141.115 20.7309 140.631 21.1708 140.011 21.5049C139.39 21.8401 138.669 22.0071 137.846 22.0071C136.898 22.0071 136.034 21.7604 135.253 21.2643C134.471 20.7695 133.854 20.0653 133.402 19.1517C132.948 18.2381 132.722 17.1824 132.722 15.9834C132.722 14.7844 132.949 13.7325 133.402 12.8251L133.403 12.8264ZM140.723 13.8933C140.228 13.3773 139.625 13.1193 138.914 13.1193C138.204 13.1193 137.601 13.3735 137.106 13.8821C136.611 14.3906 136.363 15.0923 136.363 15.9834C136.363 16.8746 136.61 17.5838 137.106 18.106C137.601 18.6295 138.204 18.89 138.914 18.89C139.625 18.89 140.228 18.632 140.723 18.116C141.218 17.6 141.466 16.8958 141.466 16.0034C141.466 15.111 141.218 14.4068 140.723 13.8908V13.8933Z" fill="#374151"/>
  <path d="M151.211 9.79398V21.8401H147.634V13.3736L150.846 10.1592L151.211 9.79398Z" fill="#374151"/>
  <path d="M151.21 5.08893V7.18408C151.21 8.1712 150.81 9.06485 150.163 9.71296L147.634 12.2418V8.66601C147.634 6.90863 148.902 5.44664 150.573 5.14626C150.78 5.10887 150.993 5.08893 151.211 5.08893H151.21Z" fill="#0D806E"/>
  <path d="M155.644 21.8439C156.67 21.8439 157.501 21.0124 157.501 19.9868C157.501 18.9611 156.67 18.1297 155.644 18.1297C154.619 18.1297 153.787 18.9611 153.787 19.9868C153.787 21.0124 154.619 21.8439 155.644 21.8439Z" fill="url(#paint0_linear_30_99)"/>
  <path d="M159.754 12.8264C160.206 11.9203 160.823 11.2236 161.605 10.735C162.385 10.2476 163.257 10.0034 164.218 10.0034C165.041 10.0034 165.762 10.1704 166.383 10.5056C167.004 10.8397 167.481 11.2796 167.815 11.8231V10.1704H171.391V21.8401H167.815V20.1874C167.466 20.7309 166.981 21.1708 166.362 21.5049C165.741 21.8401 165.02 22.0071 164.197 22.0071C163.248 22.0071 162.385 21.7604 161.603 21.2643C160.822 20.7695 160.205 20.0653 159.752 19.1517C159.299 18.2381 159.073 17.1824 159.073 15.9834C159.073 14.7844 159.3 13.7325 159.752 12.8251L159.754 12.8264ZM167.074 13.8933C166.579 13.3773 165.976 13.1193 165.265 13.1193C164.555 13.1193 163.951 13.3735 163.457 13.8821C162.962 14.3906 162.714 15.0923 162.714 15.9834C162.714 16.8746 162.961 17.5838 163.457 18.106C163.951 18.6295 164.555 18.89 165.265 18.89C165.976 18.89 166.579 18.632 167.074 18.116C167.568 17.6 167.816 16.8958 167.816 16.0034C167.816 15.111 167.568 14.4068 167.074 13.8908V13.8933Z" fill="#374151"/>
  <path d="M193.202 10.5056C193.816 10.1716 194.534 10.0034 195.356 10.0034C196.318 10.0034 197.19 10.2476 197.97 10.735C198.75 11.2236 199.367 11.9203 199.821 12.8264C200.273 13.7325 200.5 14.7857 200.5 15.9847C200.5 17.1837 200.273 18.2394 199.821 19.153C199.367 20.0665 198.75 20.7707 197.97 21.2656C197.188 21.7604 196.317 22.0084 195.356 22.0084C194.547 22.0084 193.833 21.8414 193.212 21.5061C192.592 21.1721 192.107 20.7396 191.759 20.2099V26.9228H188.183V10.1704H191.759V11.8231C192.108 11.2796 192.588 10.8397 193.202 10.5056ZM196.12 13.8833C195.625 13.3748 195.015 13.1205 194.291 13.1205C193.566 13.1205 192.976 13.3785 192.482 13.8945C191.987 14.4105 191.739 15.1147 191.739 16.0071C191.739 16.8995 191.987 17.6037 192.482 18.1197C192.977 18.6357 193.58 18.8937 194.291 18.8937C195.001 18.8937 195.608 18.632 196.11 18.1097C196.613 17.5875 196.863 16.8796 196.863 15.9872C196.863 15.0948 196.615 14.3943 196.12 13.8858V13.8833Z" fill="#374151"/>
  <path d="M179.004 10.5056C179.617 10.1716 180.335 10.0034 181.158 10.0034C182.12 10.0034 182.991 10.2476 183.771 10.735C184.551 11.2236 185.168 11.9203 185.622 12.8264C186.075 13.7325 186.301 14.7857 186.301 15.9847C186.301 17.1837 186.075 18.2394 185.622 19.153C185.168 20.0665 184.551 20.7707 183.771 21.2656C182.99 21.7604 182.119 22.0084 181.158 22.0084C180.349 22.0084 179.635 21.8414 179.014 21.5061C178.393 21.1721 177.908 20.7396 177.561 20.2099V26.9228H173.985V10.1704H177.561V11.8231C177.91 11.2796 178.389 10.8397 179.004 10.5056ZM181.922 13.8833C181.427 13.3748 180.816 13.1205 180.092 13.1205C179.368 13.1205 178.777 13.3785 178.283 13.8945C177.789 14.4105 177.541 15.1147 177.541 16.0071C177.541 16.8995 177.789 17.6037 178.283 18.1197C178.778 18.6357 179.382 18.8937 180.092 18.8937C180.802 18.8937 181.409 18.632 181.912 18.1097C182.414 17.5875 182.664 16.8796 182.664 15.9872C182.664 15.0948 182.416 14.3943 181.922 13.8858V13.8833Z" fill="#374151"/>
  <path d="M32.4993 15.9996C32.4993 24.8364 25.3364 31.9993 16.4996 31.9993C13.2391 31.9993 10.2055 31.0234 7.6766 29.3483L14.0767 22.9482C15.8391 21.1858 17.2225 19.133 18.1897 16.8472C19.1918 14.4791 19.7003 11.9639 19.7003 9.37394V0.320312C27.0041 1.80225 32.5005 8.25969 32.5005 15.9996H32.4993Z" fill="url(#paint1_linear_30_99)"/>
  <path d="M16.4997 0V9.37395C16.4997 13.7911 14.7099 17.7907 11.8145 20.6848L0.5 31.9993V15.9997C0.5 8.13755 6.17098 1.59909 13.6467 0.254259C14.5728 0.0872459 15.5262 0 16.4997 0Z" fill="#0D806E"/>
  <defs>
  <linearGradient id="paint0_linear_30_99" x1="153.787" y1="19.9868" x2="157.5" y2="19.9868" gradientUnits="userSpaceOnUse">
  <stop stop-color="#E9C46A"/>
  <stop offset="0.5" stop-color="#F4A261"/>
  <stop offset="1" stop-color="#E76F51"/>
  </linearGradient>
  <linearGradient id="paint1_linear_30_99" x1="7.6766" y1="16.1592" x2="32.4993" y2="16.1592" gradientUnits="userSpaceOnUse">
  <stop stop-color="#E9C46A"/>
  <stop offset="0.5" stop-color="#F4A261"/>
  <stop offset="1" stop-color="#E76F51"/>
  </linearGradient>
  </defs>
  </svg>
  